PathFileType	4	(X/Y/Z)	Patient4_TMGait_0pt2_01_left_01.trc.trc
DataRate	CameraRate	NumFrames	NumMarkers	Units	OrigDataRate	OrigDataStartFrame	OrigNumFrames
45.016077170418	45.016077170418	4	33	mm	45.016077170418	53	       141
Frame#	Time	Sacral			L.Shoulder			Chest			R.Shoulder			Neck			R.ASIS			L.ASIS			R.Thigh.Superior			R.Thigh.Lateral			R.Thigh.Inferior			R.Patella			L.Thigh.Superior			L.Thigh.Lateral			L.Thigh.Inferior			L.Patella			L.Shank.Superior			L.Shank.Lateral			L.Shank.Inferior			R.Shank.Superior			R.Shank.Lateral			R.Shank.Inferior			R.Heel			R.Midfoot.Superior			R.Midfoot.Lateral			R.Toe			L.Heel			L.Midfoot.Lateral			L.Midfoot.Superior			L.Toe			L.Elbow			L.Wrist			R.Elbow			R.Wrist			
		X1	Y1	Z1	X2	Y2	Z2	X3	Y3	Z3	X4	Y4	Z4	X5	Y5	Z5	X6	Y6	Z6	X7	Y7	Z7	X8	Y8	Z8	X9	Y9	Z9	X10	Y10	Z10	X11	Y11	Z11	X12	Y12	Z12	X13	Y13	Z13	X14	Y14	Z14	X15	Y15	Z15	X16	Y16	Z16	X17	Y17	Z17	X18	Y18	Z18	X19	Y19	Z19	X20	Y20	Z20	X21	Y21	Z21	X22	Y22	Z22	X23	Y23	Z23	X24	Y24	Z24	X25	Y25	Z25	X26	Y26	Z26	X27	Y27	Z27	X28	Y28	Z28	X29	Y29	Z29	X30	Y30	Z30	X31	Y31	Z31	X32	Y32	Z32	X33	Y33	Z33	

53	2.295142857143	864.439176738658	1004.645535926720	435.116762005570	1038.553162531375	1431.897932328830	246.238761451362	1146.754994191016	1364.433316945005	404.091488121638	1069.475933777341	1436.472296215003	581.302920645324	1026.355170141681	1493.204944865787	403.276398879960	1097.144824648388	936.303523856929	544.429726621094	1076.288931938097	959.168948780418	272.048293219158	1136.788055371742	735.163788936798	524.258457578246	1061.720892505978	628.352624565403	597.638852861953	1139.102495512061	567.038879131980	522.550755653783	1130.564982043165	459.658802612822	548.226873870156	1132.580597213160	750.371141073732	316.058756226387	1053.408148625635	624.233795909857	261.528516845292	1137.189619297427	554.829231037381	333.042200827823	1139.255529181106	483.083455668838	345.808648197945	1106.074332164418	409.667360104052	340.613162063418	1012.202996931540	299.671937404301	289.156965476089	1047.475041758872	188.673359343853	367.244187725913	1051.778765050371	394.179258169736	558.829947689670	931.903374707799	359.310957407928	624.478219099888	913.550229963400	249.218892724157	578.568438950760	709.103064077222	191.428978862682	559.403702331689	877.507822126947	131.673131695868	599.058397894205	769.135089186277	133.665370945055	633.266287430029	940.876571929138	31.722941756658	625.158810068532	907.092586471076	39.057259916246	405.917365940553	983.601085755275	36.529042072776	327.683112823733	1067.155638465174	96.544695537134	357.816303847824	1195.791419119971	41.374598358173	332.689515268043	1050.297935797863	1085.588025205819	113.406875517427	1143.146159227759	840.237253972767	120.596275056334	1091.740531273275	1084.797935635581	700.165938414959	1235.058757584151	869.191587354043	703.972487440533	
54	2.317357142857	863.448287969494	1003.158364820980	431.751199459065	1038.906475612075	1431.684358286067	244.815282646757	1145.321781602459	1364.054507672819	403.778860336592	1065.695421533382	1435.221046119825	580.396754611705	1025.155103109193	1492.561372169763	402.132218674894	1096.004151270343	936.382339350136	542.560034807881	1076.640016124436	958.620669767196	270.026460291643	1142.180869035495	738.103045241415	521.562150712898	1071.348818962804	629.344922622026	595.637733565272	1150.521220849509	569.979900044653	520.224147661146	1144.322637154195	461.264217717220	546.598024752011	1132.848962328581	749.324654148052	314.293032883834	1053.423931811541	623.177979264599	260.241244588626	1136.904945037504	553.742135369761	332.180070399998	1138.748408672012	481.887555427991	345.238884423911	1104.816800143575	408.462280974089	340.179999948088	1010.131499380242	299.140122375033	288.842384691530	1044.152073842088	188.035772988921	367.204113823698	1064.136427723494	395.840128963613	557.277732428902	942.956064811979	364.164694818119	622.918761047812	921.971025763868	254.090592108976	577.644763640283	715.938269179548	202.830577080540	558.351740659283	882.815244515583	136.637911393198	598.537477673400	773.897609807874	142.763939591941	632.493555699740	942.351130649454	31.439267522933	625.185341286048	902.661866234460	39.066409951878	405.899491433051	979.181662033416	36.522875854734	327.677483467175	1062.759816432878	96.468764937375	357.869301039366	1191.384551972906	41.251336883054	332.659554545469	1062.077906722096	1086.431009421807	110.563294886526	1168.922878970528	847.001648600022	118.682136725950	1070.210060997417	1082.608840377641	698.087994138199	1193.709947854680	854.952069418137	705.730920697829	
55	2.339571428571	862.399551726404	1001.772637420107	428.577441350054	1039.463067478050	1431.529651538382	243.765360005299	1143.944248101464	1363.624994009074	403.850788821753	1061.905978437851	1433.955618839920	579.781718469848	1024.049183807983	1491.954132576710	401.348164316813	1094.670302263818	936.496253882346	541.007428529718	1076.928789242883	958.072008152976	268.293934502253	1147.008921106396	741.255973565787	519.122533136361	1080.330037526051	630.735072994284	593.897352779910	1161.088610465919	573.339281908534	518.101359562621	1157.397751078913	463.533401746652	545.044255501971	1132.972976000733	748.293267690448	312.768068830606	1053.268506807273	622.163158130203	259.121143973300	1136.446620656423	552.675248586987	331.468335281286	1138.069038813146	480.720106259741	344.801082599923	1103.403778358355	407.294449845548	339.846207672167	1007.938206416303	298.634619217675	288.581359991090	1040.767536066519	187.423265532166	367.188577177200	1076.263751980282	397.833450169401	555.873990790885	954.087303999072	368.398146114372	621.516911607290	931.308008417273	258.223286879711	576.787019260164	724.142027571124	211.206021596929	557.374048037477	890.096989783674	140.986584563297	598.059159658390	780.755139775022	149.824493553799	631.850203766930	947.176819052349	31.500350461919	625.415464018374	898.217572670148	39.066506807082	405.880098891782	974.753390574799	36.512946720845	327.664040779289	1058.352855560123	96.395344159137	357.916244527728	1186.966261762106	41.144135342643	332.631553066899	1073.848044024625	1087.927305270484	107.865923881550	1195.084286961137	855.557276129201	117.176221785110	1048.664621359943	1081.341679378598	695.833613221613	1152.039695329018	843.661916679147	706.732233819745	
56	2.361785714286	861.299716748738	1000.603596229578	425.564476668353	1040.290255286113	1431.501503298342	243.073203023718	1142.646414006996	1363.235126601678	404.316834117511	1058.108744391382	1432.816376165689	579.426817586337	1023.062125803535	1491.471665506870	400.887134741718	1093.111408172834	936.728068519298	539.823730169855	1077.209171648597	957.598823565909	266.903119528960	1151.079437812788	744.590882078319	517.033745776933	1088.361246091717	632.526111436320	592.474305389414	1170.477795660425	577.058188913684	516.265427491216	1169.458083678384	466.478166396008	543.669152882780	1132.888210599372	747.294233672895	311.532558135566	1052.846197247927	621.251962650029	258.177751688797	1135.653761120638	551.656981102363	330.932431536691	1137.024274506355	479.629749036184	344.514454468935	1101.685929139250	406.224211327709	339.613391881602	1005.526451873542	298.177055024691	288.364959586019	1037.265840620928	186.867770144006	367.195108859364	1087.954031459289	400.121134832412	554.725390812712	965.177727038846	371.703613382896	620.366562462927	941.717644681331	261.275515741341	576.097881486456	734.011927220060	215.681906638453	556.575231981597	899.787113790185	144.307076853674	597.739960315483	790.147241762563	154.135349782477	631.443235661214	956.084227880993	31.932963375899	625.939054647982	893.755371585498	39.056583675976	405.858265794926	970.313129257465	36.499536663802	327.641828984196	1053.930689825700	96.328271638305	357.954156530255	1182.533054002858	41.058039023353	332.607544608837	1085.607116805621	1090.128513771886	105.316095523047	1221.337911830960	865.951116523627	116.066395713370	1027.355562812711	1081.116705551169	693.467841760721	1110.842720618237	835.452555034964	706.969996037502	
